# Blender 4.2.3 LTS
# www.blender.org
mtllib te_Road_Railling01.mtl
o te_Road_Railling01
v -0.093750 0.000000 0.062500
v -0.093750 -0.000000 -0.062500
v -0.093750 1.218750 -0.062500
v 0.000000 1.312500 -0.062500
v -2.031250 1.312500 0.062500
v 0.000000 0.000000 0.062500
v -2.031250 1.218750 -0.062500
v 0.000000 -0.000000 -0.062500
v -2.031250 1.218750 0.062500
v -0.093750 1.218750 0.062500
v 0.000000 1.312500 0.062500
v -2.031250 1.312500 -0.062500
v -1.593750 0.125000 0.031250
v -1.593750 0.125000 -0.031250
v -1.343750 0.125000 0.031250
v -1.343750 0.125000 -0.031250
v -1.343750 1.218750 0.031250
v -1.343750 1.218750 -0.031250
v -1.093750 0.125000 -0.031250
v -1.093750 1.218750 -0.031250
v -0.843750 0.125000 0.031250
v -0.843750 0.125000 -0.031250
v -0.843750 1.218750 -0.031250
v -0.593750 0.125000 0.031250
v -0.593750 1.218750 0.031250
v -0.593750 1.218750 -0.031250
v -0.343750 0.125000 -0.031250
v -0.343750 1.218750 0.031250
v -0.343750 1.218750 -0.031250
v -1.781250 0.125000 -0.031250
v -1.781250 1.218750 0.031250
v -1.531250 0.125000 0.031250
v -1.531250 0.125000 -0.031250
v -1.531250 1.218750 0.031250
v -1.281250 0.125000 0.031250
v -1.281250 0.125000 -0.031250
v -1.281250 1.218750 0.031250
v -1.031250 0.125000 0.031250
v -0.781250 0.125000 -0.031250
v -0.781250 1.218750 0.031250
v -0.531250 0.125000 0.031250
v -0.281250 0.125000 -0.031250
v -1.843750 0.125000 0.031250
v -1.843750 1.218750 0.031250
v -1.781250 0.125000 0.031250
v -1.593750 1.218750 0.031250
v -1.093750 0.125000 0.031250
v -1.093750 1.218750 0.031250
v -1.031250 1.218750 0.031250
v -0.843750 1.218750 0.031250
v -0.781250 0.125000 0.031250
v -0.531250 1.218750 0.031250
v -0.343750 0.125000 0.031250
v -0.281250 0.125000 0.031250
v -0.281250 1.218750 0.031250
v -1.843750 0.125000 -0.031250
v -1.843750 1.218750 -0.031250
v -1.781250 1.218750 -0.031250
v -1.593750 1.218750 -0.031250
v -1.531250 1.218750 -0.031250
v -1.281250 1.218750 -0.031250
v -1.031250 0.125000 -0.031250
v -1.031250 1.218750 -0.031250
v -0.781250 1.218750 -0.031250
v -0.593750 0.125000 -0.031250
v -0.531250 0.125000 -0.031250
v -0.531250 1.218750 -0.031250
v -0.281250 1.218750 -0.031250
v -2.031250 0.093750 0.031250
v -2.031250 0.093750 -0.031250
v -2.031250 0.125000 -0.031250
v -0.093750 0.125000 -0.031250
v -0.093750 0.093750 0.031250
v -0.093750 0.093750 -0.031250
v -2.031250 0.125000 0.031250
v -0.093750 0.125000 0.031250
vn 1.0000 -0.0000 -0.0000
vn -0.0000 1.0000 -0.0000
vn -0.0000 -1.0000 -0.0000
vn -0.0000 -0.0000 1.0000
vn -0.0000 -0.0000 -1.0000
vn -1.0000 -0.0000 -0.0000
vt 0.000000 0.333333
vt 0.530303 0.333333
vt 0.530303 0.363636
vt 0.000000 0.363636
vt 0.939394 0.575758
vt 0.939394 0.545455
vt 0.000000 0.545455
vt 0.000000 0.575758
vt 0.939394 0.484848
vt 0.000000 0.484848
vt 0.636364 0.363636
vt 0.636364 0.424242
vt 0.000000 0.424242
vt 0.984848 0.696970
vt 0.984848 0.636364
vt 0.000000 0.636364
vt 0.000000 0.696970
vt 0.939394 0.590909
vt 0.000000 0.590909
vt 0.590909 0.424242
vt 0.590909 0.484848
vt 0.939394 0.000000
vt 0.984848 0.000000
s 0
usemtl te_Road_Railling01
f 36/1/1 61/2/1 37/3/1 35/4/1
f 76/5/2 72/6/2 71/7/2 75/8/2
f 3/9/3 10/6/3 9/7/3 7/10/3
f 8/4/1 4/11/1 11/12/1 6/13/1
f 66/1/1 67/2/1 52/3/1 41/4/1
f 31/2/4 44/3/4 43/4/4 45/1/4
f 74/6/3 73/5/3 69/8/3 70/7/3
f 30/1/1 58/2/1 31/3/1 45/4/1
f 59/3/5 60/2/5 33/1/5 14/4/5
f 57/3/5 58/2/5 30/1/5 56/4/5
f 11/14/2 4/15/2 12/16/2 5/17/2
f 34/2/4 46/3/4 13/4/4 32/1/4
f 20/2/6 19/1/6 47/4/6 48/3/6
f 55/2/4 28/3/4 53/4/4 54/1/4
f 33/1/1 60/2/1 34/3/1 32/4/1
f 37/2/4 17/3/4 15/4/4 35/1/4
f 76/18/4 75/19/4 69/8/4 73/5/4
f 26/2/6 65/1/6 24/4/6 25/3/6
f 62/1/1 63/2/1 49/3/1 38/4/1
f 42/1/1 68/2/1 55/3/1 54/4/1
f 18/2/6 16/1/6 15/4/6 17/3/6
f 29/3/5 68/2/5 42/1/5 27/4/5
f 4/15/5 3/18/5 7/19/5 12/16/5
f 40/2/4 50/3/4 21/4/4 51/1/4
f 49/2/4 48/3/4 47/4/4 38/1/4
f 3/20/6 2/13/6 1/10/6 10/21/6
f 59/2/6 14/1/6 13/4/6 46/3/6
f 57/2/6 56/1/6 43/4/6 44/3/6
f 29/2/6 27/1/6 53/4/6 28/3/6
f 20/3/5 63/2/5 62/1/5 19/4/5
f 39/1/1 64/2/1 40/3/1 51/4/1
f 11/15/4 10/18/4 1/22/4 6/23/4
f 26/3/5 67/2/5 66/1/5 65/4/5
f 23/3/5 64/2/5 39/1/5 22/4/5
f 52/2/4 25/3/4 24/4/4 41/1/4
f 71/19/5 72/18/5 74/5/5 70/8/5
f 18/3/5 61/2/5 36/1/5 16/4/5
f 23/2/6 22/1/6 21/4/6 50/3/6
f 5/16/4 9/19/4 10/18/4 11/15/4
f 8/23/5 2/22/5 3/18/5 4/15/5
